<?xml version="1.0" encoding="UTF-8" standalone="no"?>
<svg
   width="1333.527"
   height="531"
   version="1.1"
   id="svg188"
   sodipodi:docname="pythonmorsels_logo_white.svg"
   inkscape:version="1.2.1 (9c6d41e410, 2022-07-14)"
   xmlns:inkscape="http://www.inkscape.org/namespaces/inkscape"
   xmlns:sodipodi="http://sodipodi.sourceforge.net/DTD/sodipodi-0.dtd"
   xmlns="http://www.w3.org/2000/svg"
   xmlns:svg="http://www.w3.org/2000/svg">
  <defs
     id="defs192" />
  <sodipodi:namedview
     id="namedview190"
     pagecolor="#505050"
     bordercolor="#ffffff"
     borderopacity="1"
     inkscape:showpageshadow="0"
     inkscape:pageopacity="0"
     inkscape:pagecheckerboard="1"
     inkscape:deskcolor="#505050"
     showgrid="false"
     inkscape:zoom="0.97785798"
     inkscape:cx="462.74613"
     inkscape:cy="265.88728"
     inkscape:window-width="2560"
     inkscape:window-height="1411"
     inkscape:window-x="1920"
     inkscape:window-y="0"
     inkscape:window-maximized="1"
     inkscape:current-layer="svg188" />
  <path
     fill="#98CA3E"
     d="M279.353 25.829c-9.523-4.173-19.002-7.061-28.381-8.795a110.321 110.321 0 0 0-20.07-1.85c-33.51 0-64.443 15.403-89.32 38.723-30.191 28.301-81.253 86.206-20.021 112.021 17.828 7.517 37.536 11.516 57.139 11.516 13.277 0 26.506-1.835 39.072-5.654 14.698-4.467 28.514-11.602 40.753-20.875 3.396-2.572 15.062-12.726 20.161-23.592 0 0 .401 20.459-9.227 44.127-9.302 22.868-36.484 53.297-36.484 53.297l62.33 53.207c.225.25.443.504.668.754l.171.185c8.531-12.831 16.226-26.393 22.645-40.758 31.333-70.131 46.317-174.723-39.436-212.306z"
     id="path150" />
  <path
     fill="#231F20"
     d="M349.08 77.192c-5.521-14.284-13.452-26.944-23.573-37.629-10.841-11.443-24.319-20.743-40.06-27.642-10.357-4.539-21.028-7.843-31.716-9.819A125.9 125.9 0 0 0 230.901 0c-18.294 0-36.506 4.022-54.13 11.954-16.133 7.261-31.466 17.648-45.575 30.874-15.163 14.214-27.334 28.005-36.176 40.991-13.961 20.505-19.558 39.183-16.635 55.516 1.587 8.87 5.617 16.856 11.977 23.739 6.207 6.718 14.719 12.386 25.298 16.846 19.72 8.314 41.518 12.708 63.038 12.708 15.08 0 29.712-2.123 43.488-6.31a143.68 143.68 0 0 0 29.354-12.639c-8.624 15.699-23.876 34.218-29.89 40.951a15.184 15.184 0 0 0 1.466 21.665l61.525 52.521.046.051c.092.103.19.208.288.312a15.18 15.18 0 0 0 12.317 4.853 15.183 15.183 0 0 0 11.496-6.734c9.435-14.19 17.464-28.648 23.863-42.971 8.364-18.719 19.297-48.072 23.887-81.605 4.442-32.454 1.933-61.231-7.458-85.53zm-53.776 200.761l-62.33-53.207s27.182-30.429 36.484-53.297c9.627-23.668 9.227-44.127 9.227-44.127-5.099 10.866-16.766 21.02-20.161 23.592-12.24 9.273-26.055 16.408-40.753 20.875-12.566 3.819-25.795 5.654-39.072 5.654-19.603 0-39.311-3.999-57.139-11.516-61.231-25.814-10.17-83.72 20.021-112.021 24.877-23.319 55.811-38.723 89.32-38.723 6.598 0 13.3.599 20.07 1.85 9.379 1.734 18.858 4.622 28.381 8.795 85.753 37.583 70.77 142.175 39.435 212.305-6.418 14.365-14.113 27.927-22.645 40.758-.057-.062-.115-.122-.171-.185-.224-.249-.443-.503-.667-.753z"
     id="path152" />
  <path
     fill="#80B041"
     d="M264.26 238.514a382.744 382.744 0 0 0 4.329-11.015c6.157-16.429 11.223-33.378 13.935-50.736 1.013-9.021 1.292-18.126.423-27.163-.848-4.833-2.072-9.586-3.746-14.197-.255-.529-.527-1.049-.795-1.569-.623 7.882-2.616 22.052-8.947 37.616-9.302 22.868-36.484 53.297-36.484 53.297l27.117 23.148a475.209 475.209 0 0 0 4.168-9.381z"
     id="path154" />
  <circle
     fill="#231F20"
     cx="203.285"
     cy="123.602"
     r="20.978"
     id="circle156" />
  <path
     fill="#D59D29"
     d="M240.915 209.357c-.487-.195-.981-.391-1.48-.585a46.541 46.541 0 0 1-29.329 17.667l.001.287c0 25.597-20.824 46.422-46.421 46.422-17.834 0-33.667-9.974-41.449-25.468a46.401 46.401 0 0 1-10.79 1.26c-10.517 0-20.707-3.608-28.863-10.075-31.265 27.109-49.622 64.073-51.874 104.77-2.23 40.316 11.335 79.362 38.198 109.943a156.173 156.173 0 0 0 25.473 23.258c17.636 1.736 35.292 2.756 52.975 1.397 7.411-.569 14.811-1.484 22.181-2.533l-22.838-11.841c-5.148-2.67-6.134-9.613-1.934-13.61l17.449-16.604c3.664-3.486 9.549-2.991 12.579 1.059l20.452 27.337a8.437 8.437 0 0 1 .74 8.918 146.397 146.397 0 0 0 13.126-3.998c2.238-.8 4.454-1.658 6.652-2.561 8.417-3.46 16.9-6.865 25.147-10.732 9.078-4.256 17.504-9.543 25.768-15.194 12.541-8.576 24.737-17.813 36.228-27.746 7.048-6.091 13.575-12.778 19.346-20.096 5.12-6.493 10.158-12.886 14.866-19.484.407-3.283.722-6.597.919-9.942.529-8.944.285-17.951-.726-26.771-6.295-54.96-44.133-104.056-96.396-125.078zm-130.89 190.008L91.262 411.16a7.6 7.6 0 0 1-10.498-2.42l-10.025-16.117c-2.952-4.746.056-10.947 5.611-11.567l27.075-3.019a7.6 7.6 0 0 1 8.243 5.825l1.713 7.341a7.601 7.601 0 0 1-3.356 8.162zm10.544-95.66l-34.44 8.142a8.444 8.444 0 0 1-9.871-5.317l-2.908-7.958a8.44 8.44 0 0 1 3.554-10.117l28.77-17.435c4.225-2.56 9.734-.962 11.934 3.461l8.578 17.25c2.421 4.869-.325 10.723-5.617 11.974zm82.563 56.24l-3.7 8.16a9.032 9.032 0 0 1-9.072 5.262l-26.225-2.467a9.033 9.033 0 0 1-8.143-9.882l2.22-22.449c.653-6.61 7.979-10.278 13.663-6.84l27.705 16.757a9.031 9.031 0 0 1 3.552 11.459zm36.625-71.326c-4.658-.951-7.612-5.56-6.532-10.189l3.518-15.078c1.077-4.616 5.744-7.441 10.334-6.255l28.964 7.487a8.442 8.442 0 0 1 6.3 8.876l-1.167 13.986c-.42 5.04-5.147 8.581-10.102 7.569l-31.315-6.396zm63.145 81.201l-28.259 35.931a8.442 8.442 0 0 1-11.035 1.985l-18.501-11.297a8.443 8.443 0 0 1-3.637-9.791l13.118-40.764c1.567-4.871 7.072-7.238 11.686-5.026l33.643 16.131c4.871 2.337 6.325 8.584 2.985 12.831z"
     id="path158" />
  <path
     fill="#A57F48"
     d="M302.905 410.728c-11.491 9.933-23.687 19.17-36.228 27.746-8.263 5.651-16.689 10.938-25.768 15.194-8.247 3.867-16.73 7.272-25.147 10.732a154.601 154.601 0 0 1-6.652 2.561 146.497 146.497 0 0 1-13.126 3.998 8.416 8.416 0 0 1-1.68 2.255l-6.066 5.771a8.442 8.442 0 0 1-9.705 1.379l-8.997-4.664c-7.37 1.049-14.77 1.964-22.181 2.533-17.683 1.358-35.339.339-52.975-1.397 22.889 16.651 49.917 26.659 78.623 28.778 3.832.283 7.714.427 11.535.427 77.923 0 143.105-58.489 152.577-134.894-4.708 6.599-9.747 12.991-14.866 19.484-5.769 7.318-12.296 14.006-19.344 20.097z"
     id="path160" />
  <path
     fill="#231F20"
     d="M352.396 332.707c-6.92-60.419-48.455-114.366-105.815-137.438a166.023 166.023 0 0 0-7.693-2.866l-6.002-2.071-3.101 5.539c-5.528 9.875-15.978 16.01-27.259 16.01l-.16-.005a17.725 17.725 0 0 0-.401-.011l-9.341-.173 1.741 9.179c.37 1.947.557 3.918.557 5.855 0 17.225-14.012 31.236-31.235 31.236-13.76 0-25.748-8.817-29.831-21.941l-2.492-8.011-7.724 3.276a31.012 31.012 0 0 1-12.191 2.469 31.322 31.322 0 0 1-23.011-10.119l-4.796-5.223-5.538 4.427c-18.243 14.584-32.938 32.175-43.676 52.287-11.203 20.982-17.555 43.75-18.878 67.668-2.452 44.314 12.447 87.216 41.95 120.805 29.506 33.592 70.13 53.892 114.387 57.158 4.203.311 8.46.467 12.653.467 89.298 0 163.38-69.896 168.655-159.124.58-9.818.311-19.707-.799-29.394zM184.54 506.041c-3.821 0-7.703-.144-11.535-.427-28.707-2.119-55.734-12.127-78.623-28.778a156.173 156.173 0 0 1-25.473-23.258c-26.862-30.581-40.428-69.627-38.198-109.943 2.251-40.696 20.608-77.66 51.874-104.77 8.156 6.467 18.347 10.075 28.863 10.075 3.67 0 7.278-.422 10.79-1.26 7.782 15.494 23.615 25.468 41.449 25.468 25.597 0 46.421-20.825 46.421-46.422l-.001-.287a46.541 46.541 0 0 0 29.329-17.667c.499.194.993.39 1.48.585 52.263 21.021 90.101 70.117 96.396 125.077a155.343 155.343 0 0 1 .726 26.771 154.66 154.66 0 0 1-.919 9.942c-9.474 76.405-74.656 134.894-152.579 134.894z"
     id="path162" />
  <path
     fill="#492B15"
     d="M111.667 383.862a7.6 7.6 0 0 0-8.243-5.825l-27.075 3.019c-5.555.62-8.563 6.821-5.611 11.567l10.025 16.117a7.6 7.6 0 0 0 10.498 2.42l18.763-11.795a7.602 7.602 0 0 0 3.356-8.162l-1.713-7.341zm5.94-109.382c-2.2-4.423-7.709-6.021-11.934-3.461l-28.77 17.435a8.442 8.442 0 0 0-3.554 10.117l2.908 7.958a8.442 8.442 0 0 0 9.871 5.317l34.44-8.142c5.292-1.251 8.038-7.105 5.617-11.975l-8.578-17.249zm77.892 196.608c.163-.041.323-.088.485-.129a8.435 8.435 0 0 0-.74-8.918l-20.452-27.337c-3.029-4.05-8.915-4.545-12.579-1.059l-17.449 16.604c-4.201 3.997-3.214 10.94 1.934 13.61l22.838 11.841a993.911 993.911 0 0 0 12.026-1.802 153.94 153.94 0 0 0 13.937-2.81z"
     id="path164" />
  <path
     fill="#492B15"
     d="M188.238 478.985l6.066-5.771a8.416 8.416 0 0 0 1.68-2.255c-.162.041-.323.088-.485.129a154.289 154.289 0 0 1-13.937 2.811c-3.998.619-8.007 1.229-12.026 1.802l8.997 4.664a8.442 8.442 0 0 0 9.705-1.38zm11.343-130.499l-27.705-16.757c-5.684-3.438-13.01.229-13.663 6.84l-2.22 22.449c-.493 4.981 3.16 9.413 8.143 9.882l26.225 2.467a9.032 9.032 0 0 0 9.072-5.262l3.7-8.16a9.033 9.033 0 0 0-3.552-11.459zm81.593-61.04l1.167-13.986a8.441 8.441 0 0 0-6.3-8.876l-28.964-7.487c-4.59-1.187-9.257 1.639-10.334 6.255l-3.518 15.078a8.442 8.442 0 0 0 6.532 10.189l31.315 6.396c4.955 1.012 9.682-2.529 10.102-7.569zm18.743 69.543l-33.643-16.131c-4.614-2.212-10.119.155-11.686 5.026l-13.118 40.764a8.443 8.443 0 0 0 3.637 9.791l18.501 11.297a8.443 8.443 0 0 0 11.035-1.985l28.259-35.931c3.34-4.247 1.886-10.494-2.985-12.831z"
     id="path166" />
  <path
     fill="#93C740"
     d="M259.612 493.006c.591-.379 1.186-.754 1.771-1.143-.586.389-1.179.764-1.771 1.143zm-4.564 2.836z"
     id="path168" />
  <path
     fill="#80B041"
     d="M258.244 493.889c.46-.288.912-.589 1.368-.883-.456.294-.908.595-1.368.883z"
     id="path170" />
  <path
     fill="#673995"
     d="M73.574 476.002c.162.168.335.329.5.496.083-.039.173-.086.256-.126-.305-.071-.572-.181-.756-.37z"
     id="path172" />
  <path
     fill="#98CA3E"
     d="M34.564 336.924c-2.577 0-4.904.138-6.938.354a4.98 4.98 0 0 0-.404-.017c-10.601-.002-20.15 32.697-1.14 53.604 0 0 39.193-26.152 78.996-26.25-18.784-16.299-46.75-25.364-61.084-27.108a78.458 78.458 0 0 0-9.43-.583z"
     id="path174" />
  <path
     fill="#231F20"
     d="M115.03 353.147c-21.923-19.023-53.396-28.79-69.202-30.714a93.617 93.617 0 0 0-11.264-.694c-2.576 0-5.106.114-7.538.339-4.642.049-15.694 1.919-22.564 17.447-7.187 16.242-7.002 42.434 10.385 61.556a15.165 15.165 0 0 0 11.242 4.97c2.914 0 5.846-.835 8.422-2.554.337-.224 36.017-23.611 70.605-23.696a15.186 15.186 0 0 0 9.914-26.654zm-80.466-16.223c2.855 0 6.017.169 9.43.584 14.334 1.744 42.3 10.81 61.084 27.108-39.803.098-78.996 26.25-78.996 26.25-19.01-20.907-9.46-53.606 1.14-53.604.134 0 .27.006.404.017a65.636 65.636 0 0 1 6.938-.355z"
     id="path176" />
  <path
     fill="none"
     d="M326.772 470.543c-5.742-4.504-10.532-6.305-18.718-10.492h-.001s-8.935 9.698-9.985 10.91c-7.881 9.102-16.68 16.988-26.609 23.798-.438.3-.884.589-1.324.885-.652.438-1.302.881-1.96 1.31-.624.405-1.256.797-1.885 1.193-.486.307-.968.62-1.457.922-1.126.692-2.26 1.372-3.403 2.037a232.3 232.3 0 0 0 5.223 1.637c1.798.539 3.654 1.072 5.565 1.593 9.454 2.575 19.388 4.057 29.176 4.057 15.708 0 31.043-3.818 43.444-13.051-1.009-2.048-2.034-4.111-2.249-4.73-3.749-7.78-9.003-14.725-15.817-20.069zM55.8 477.162c.248.686.512 1.361.785 2.033-1.798-6.197-2.919-12.611-3.322-18.83-.55 5.658.59 11.418 2.537 16.797z"
     id="path178" />
  <path
     fill="#93C740"
     d="M358.127 481.586c10.014-14.346 13.194-33.445 7.194-50.021-2.809-7.76-7.594-14.103-13.548-19.213-8.059-6.916-18.257-11.576-28.592-14.438-10.003-2.771-20.499-4.092-30.987-4.092-8.812 0-17.616.932-26.125 2.721a149.747 149.747 0 0 0-16.15 4.375c-31.708 10.474-60.212 28.361-90.179 42.729-18.693 8.963-38.56 17.086-59.449 18.629a82.05 82.05 0 0 1-5.993.216c-20.989 0-39.943-7.575-39.943-7.575a26.875 26.875 0 0 0-1.093 5.448c.403 6.219 1.523 12.633 3.322 18.83 7.324 18.002 23.542 30.893 42.695 34.789 6.184 1.258 12.466 1.831 18.779 1.831 41.308 0 84.159-24.48 112.5-41.521 17.113-10.289 37.56-16.816 57.668-16.816 3.083 0 6.158.153 9.211.471a58.784 58.784 0 0 1 10.098 1.953c.172.05.348.098.517.148h.001c8.186 4.188 12.976 5.988 18.718 10.492 6.814 5.344 12.068 12.289 15.815 20.067.215.619 1.24 2.683 2.249 4.73 4.955-3.686 9.44-8.235 13.292-13.753z"
     id="path180" />
  <path
     fill="none"
     d="M351.774 412.352c-8.059-6.916-18.257-11.576-28.592-14.438-10.003-2.771-20.499-4.092-30.987-4.092-8.812 0-17.616.932-26.125 2.721a149.747 149.747 0 0 0-16.15 4.375c-31.708 10.474-60.212 28.361-90.179 42.729-18.693 8.963-38.56 17.086-59.449 18.629a82.05 82.05 0 0 1-5.993.216c-20.989 0-39.943-7.575-39.943-7.575a26.875 26.875 0 0 0-1.093 5.448c-.55 5.658.589 11.418 2.537 16.797.248.686.512 1.361.785 2.033 7.324 18.002 23.542 30.893 42.695 34.789 6.184 1.258 12.466 1.831 18.779 1.831 41.308 0 84.159-24.48 112.5-41.521 17.113-10.289 37.56-16.816 57.668-16.816 3.083 0 6.158.153 9.211.471a58.784 58.784 0 0 1 10.098 1.953c.172.05.348.098.517.148l-.132.144c1.302.216 2.814.551 4.534 1.06 0 0 10.852 6.028 13.843 8.712a90.07 90.07 0 0 1 10.405 10.522 77.557 77.557 0 0 1 5.885 10.122c.215.619 1.24 2.683 2.249 4.73 4.953-3.688 9.439-8.236 13.291-13.755 10.014-14.346 13.194-33.445 7.194-50.021-2.809-7.759-7.594-14.102-13.548-19.212z"
     id="path182" />
  <path
     fill="#80B041"
     d="M336.703 480.488a89.913 89.913 0 0 0-10.405-10.522c-2.991-2.684-13.843-8.712-13.843-8.712a37.821 37.821 0 0 0-4.534-1.06c-1.096 1.19-8.876 9.641-9.853 10.767-7.881 9.102-16.68 16.988-26.609 23.798-.438.3-.884.589-1.324.885-.652.438-1.302.881-1.96 1.31-.624.405-1.256.797-1.885 1.193-.486.307-.968.62-1.457.922-1.126.692-2.26 1.372-3.403 2.037a232.3 232.3 0 0 0 5.223 1.637c1.798.539 3.654 1.072 5.565 1.593 9.454 2.575 19.388 4.057 29.176 4.057 15.708 0 31.043-3.818 43.444-13.051-1.009-2.048-2.034-4.111-2.249-4.73a77.568 77.568 0 0 0-5.886-10.124z"
     id="path184" />
  <path
     fill="#231F20"
     d="M379.6 426.396c-3.544-9.792-9.579-18.394-17.937-25.567-9.147-7.852-20.731-13.756-34.429-17.55-11.124-3.08-22.913-4.643-35.04-4.643-9.795 0-19.636 1.025-29.249 3.047-5.854 1.23-11.839 2.851-17.789 4.816-22.739 7.511-43.701 18.522-63.973 29.171-9.173 4.818-18.658 9.802-28.008 14.284-16.08 7.709-35.07 15.779-54.003 17.178a66.96 66.96 0 0 1-4.874.174c-17.399 0-33.731-6.267-34.326-6.497a15.064 15.064 0 0 0-5.645-1.099c-2.217 0-4.432.49-6.488 1.461-3.835 1.811-6.706 5.155-7.975 9.202-3.053 9.738-2.496 20.489 1.654 31.957 4.268 11.789 11.665 22.338 21.393 30.505 9.508 7.983 21.036 13.525 33.339 16.028 6.964 1.417 14.301 2.136 21.806 2.136 20.443 0 42.375-5.096 67.05-15.579 19.523-8.295 37.143-18.413 53.274-28.112 11.137-6.695 23.276-11.259 35.255-13.348a123.486 123.486 0 0 1-10.768 8.274c-.206.142-.413.277-.618.414-.194.129-.389.257-.582.388l-.5.336c-.423.285-.846.57-1.273.849-.384.25-.771.491-1.157.733l-.55.346c-.205.129-.408.259-.611.389-.235.15-.47.301-.708.447a146.467 146.467 0 0 1-3.08 1.845 15.184 15.184 0 0 0 2.929 27.561 246.624 246.624 0 0 0 11.507 3.444c11.184 3.046 22.343 4.59 33.167 4.59 13.762 0 26.433-2.501 37.659-7.435 12.897-5.668 23.504-14.37 31.527-25.864 6.312-9.041 10.519-19.627 12.168-30.612 1.707-11.364.619-22.869-3.145-33.269zm-21.473 55.19c-3.852 5.519-8.338 10.067-13.291 13.755-12.4 9.232-27.736 13.051-43.444 13.051-9.789 0-19.722-1.481-29.176-4.057a230.719 230.719 0 0 1-5.565-1.593 232.3 232.3 0 0 1-5.223-1.637 164.382 164.382 0 0 0 3.403-2.037c.489-.302.971-.615 1.457-.922.629-.396 1.262-.788 1.885-1.193.659-.429 1.308-.871 1.96-1.31.44-.296.886-.585 1.324-.885 9.929-6.81 18.729-14.696 26.609-23.798.976-1.126 8.757-9.576 9.853-10.767l.132-.144c-.169-.051-.345-.099-.517-.148a58.689 58.689 0 0 0-10.098-1.953 89.207 89.207 0 0 0-9.211-.471c-20.108 0-40.555 6.527-57.668 16.816-28.341 17.04-71.191 41.521-112.5 41.521-6.313 0-12.595-.573-18.779-1.831-19.152-3.896-35.371-16.787-42.695-34.789a54.713 54.713 0 0 1-.785-2.033c-1.947-5.379-3.086-11.139-2.537-16.797a26.875 26.875 0 0 1 1.093-5.448s18.954 7.575 39.943 7.575c1.984 0 3.987-.068 5.993-.216 20.889-1.543 40.755-9.666 59.449-18.629 29.967-14.368 58.472-32.256 90.179-42.729a149.747 149.747 0 0 1 16.15-4.375 127.342 127.342 0 0 1 26.125-2.721c10.488 0 20.984 1.321 30.987 4.092 10.334 2.861 20.533 7.521 28.592 14.438 5.954 5.11 10.739 11.453 13.548 19.213 6.001 16.577 2.822 35.676-7.193 50.022zm120.045-346.539h61.236c41.891 0 62.837 17.28 62.837 51.831 0 34.422-20.946 51.631-62.837 51.631H524.4v36.623h-46.228V135.047zm78.246 51.831c0-9.205-5.803-13.807-17.41-13.807H524.4v27.415h14.608c11.608 0 17.41-4.533 17.41-13.608zm139.887 88.254h-45.828v-47.829l-53.232-92.256h52.232l24.015 53.031 24.014-53.031h52.232l-53.433 92.256v47.829zm54.831-140.085H872.41v40.425h-37.623v99.66h-46.028v-99.66h-37.622v-40.425zm218.53 0h46.028v140.085h-46.028v-49.83h-38.021v49.83h-46.229V135.047h46.229v49.831h38.021v-49.831zm81.246 122.574c-13.207-13.809-19.811-31.318-19.811-52.531s6.604-38.723 19.811-52.532c13.208-13.809 31.885-20.712 56.035-20.712 24.145 0 42.825 6.903 56.033 20.712 13.208 13.81 19.811 31.319 19.811 52.532s-6.603 38.723-19.811 52.531-31.889 20.713-56.033 20.713c-24.151 0-42.827-6.904-56.035-20.713zm76.947-29.517c5.003-5.604 7.504-13.273 7.504-23.014 0-9.737-2.501-17.411-7.504-23.014-5.004-5.604-11.977-8.404-20.912-8.404-8.941 0-15.91 2.801-20.914 8.404-5.002 5.603-7.504 13.276-7.504 23.014 0 9.74 2.502 17.41 7.504 23.014 5.004 5.603 11.973 8.404 20.914 8.404 8.935 0 15.908-2.802 20.912-8.404zm116.57 47.028H1198.2V135.047h39.023l47.429 65.84c-.8-6.67-1.2-14.675-1.2-24.015v-41.825h46.227v140.085h-39.022l-47.429-65.64c.801 6.673 1.201 14.543 1.201 23.614v42.026zm-662.191 50.356h36.221v123.686h-39.755v-56.543l-20.319 31.452h-21.38l-20.319-31.628v56.719H476.93V325.488h36.223l34.455 54.069 34.63-54.069zm67.319 108.225c-11.662-12.191-17.493-27.652-17.493-46.381 0-18.73 5.831-34.19 17.493-46.383s28.152-18.288 49.474-18.288c21.318 0 37.812 6.096 49.473 18.288 11.663 12.192 17.493 27.652 17.493 46.383 0 18.729-5.83 34.189-17.493 46.381C736.842 445.904 720.349 452 699.031 452c-21.322 0-37.812-6.096-49.474-18.287zm67.938-26.062c4.417-4.948 6.626-11.72 6.626-20.319 0-8.598-2.209-15.373-6.626-20.32s-10.573-7.422-18.464-7.422c-7.894 0-14.048 2.475-18.465 7.422s-6.625 11.723-6.625 20.32c0 8.6 2.208 15.371 6.625 20.319 4.417 4.946 10.571 7.421 18.465 7.421 7.89 0 14.047-2.474 18.464-7.421zm102.923 41.523h-40.815V325.488h57.424c7.068 0 13.545.708 19.437 2.121a57.005 57.005 0 0 1 16.609 6.891c5.183 3.182 9.246 7.717 12.192 13.605 2.941 5.892 4.416 12.898 4.416 21.026 0 17.553-7.067 29.86-21.202 36.929l31.804 43.113h-44.879l-25.443-36.576h-9.542v36.577zm0-90.467v23.323h15.726c3.887 0 6.949-1.06 9.188-3.181 2.236-2.12 3.356-4.947 3.356-8.48 0-3.534-1.12-6.36-3.356-8.482-2.239-2.119-5.302-3.18-9.188-3.18h-15.726zm83.752 2.297c0-12.485 4.563-21.997 13.694-28.536 9.127-6.537 20.761-9.807 34.896-9.807 17.551 0 32.688 3.419 45.409 10.249v35.338c-12.721-8.128-26.387-12.073-40.992-11.838-7.305 0-10.954 1.827-10.954 5.477 0 1.652 1.118 3.153 3.356 4.507 2.236 1.355 5.094 2.562 8.57 3.622a746.91 746.91 0 0 0 11.661 3.445c4.298 1.236 8.597 2.857 12.899 4.859 4.297 2.004 8.185 4.359 11.661 7.067 3.473 2.711 6.331 6.361 8.569 10.954 2.236 4.595 3.357 9.779 3.357 15.55 0 26.74-17.316 40.108-51.947 40.108-18.848 0-35.223-3.887-49.121-11.662v-36.929c14.723 9.661 29.742 14.489 45.057 14.489 5.183 0 8.805-.47 10.867-1.413 2.059-.941 3.092-2.474 3.092-4.594 0-1.884-1.475-3.622-4.418-5.213-2.945-1.591-6.656-2.942-11.131-4.063-4.479-1.118-9.307-2.738-14.489-4.859-5.185-2.121-10.013-4.532-14.488-7.244-4.478-2.708-8.188-6.626-11.132-11.751-2.944-5.123-4.416-11.042-4.416-17.756zm115.554-35.516h93.648v32.159h-52.832v14.312h46.471v30.037h-46.471v14.666h53.891v32.512h-94.707V325.488zm109.902 0h40.816v87.993h52.83v35.692h-93.646V325.488zm101.773 35.516c0-12.485 4.563-21.997 13.694-28.536 9.127-6.537 20.761-9.807 34.896-9.807 17.551 0 32.688 3.419 45.409 10.249v35.338c-12.721-8.128-26.387-12.073-40.992-11.838-7.305 0-10.954 1.827-10.954 5.477 0 1.652 1.118 3.153 3.356 4.507 2.237 1.355 5.094 2.562 8.57 3.622a746.91 746.91 0 0 0 11.661 3.445c4.298 1.236 8.597 2.857 12.899 4.859 4.297 2.004 8.185 4.359 11.661 7.067 3.473 2.711 6.331 6.361 8.569 10.954 2.236 4.595 3.357 9.779 3.357 15.55 0 26.74-17.316 40.108-51.947 40.108-18.848 0-35.223-3.887-49.121-11.662v-36.929c14.723 9.661 29.742 14.489 45.057 14.489 5.182 0 8.805-.47 10.867-1.413 2.059-.941 3.092-2.474 3.092-4.594 0-1.884-1.475-3.622-4.418-5.213-2.945-1.591-6.656-2.942-11.131-4.063-4.479-1.118-9.307-2.738-14.489-4.859-5.185-2.121-10.013-4.532-14.488-7.244-4.478-2.708-8.188-6.626-11.132-11.751-2.944-5.123-4.416-11.042-4.416-17.756z"
     id="path186" />
  <path
     style="fill:#bbbbbb;stroke-width:1.02264;fill-opacity:1"
     d="m 479.10843,205.48765 v -69.60343 l 40.65007,0.34744 40.65008,0.34743 8.18114,2.74839 c 9.91787,3.33182 15.94239,7.04998 21.8223,13.4681 5.21561,5.693 7.91473,11.35827 9.92029,20.82197 4.04749,19.09901 -0.53086,38.34525 -11.71033,49.22729 -10.08172,9.81349 -24.07673,14.18599 -48.41061,15.12508 l -16.10663,0.62159 v 18.24978 18.24978 h -22.49816 -22.49815 z m 70.43851,-6.51945 c 4.70166,-2.43132 6.57856,-5.38563 7.03499,-11.07333 0.35248,-4.39238 -0.006,-5.99535 -1.99788,-8.93228 -3.22581,-4.75643 -7.34505,-6.00847 -19.99722,-6.07814 l -10.48209,-0.0577 V 186.462 c 0,7.49938 0.34514,13.99503 0.76698,14.43476 1.18471,1.23496 21.65092,-0.36461 24.67522,-1.92854 z"
     id="path1046" />
  <path
     style="fill:#bbbbbb;fill-opacity:1;stroke-width:1.02264"
     d="m 650.91252,251.00842 v -24.08264 l -23.14035,-40.08823 c -12.7272,-22.04852 -24.46203,-42.28104 -26.07741,-44.96114 -1.61538,-2.68011 -2.93706,-5.0961 -2.93706,-5.36888 0,-0.27278 11.39616,-0.49596 25.3248,-0.49596 h 25.3248 l 11.74602,26.07559 c 6.46032,14.34157 12.00419,26.0764 12.31972,26.07741 0.31553,0.001 5.8378,-11.72175 12.27172,-26.05056 l 11.69803,-26.05237 25.31042,-0.025 c 13.92074,-0.0138 25.31043,0.19272 25.31043,0.45886 0,0.26615 -11.73483,20.7211 -26.07741,45.45545 l -26.0774,44.97153 v 24.08432 24.0843 h -22.49816 -22.49815 z"
     id="path1117" />
  <path
     style="fill:#bbbbbb;fill-opacity:1;stroke-width:1.02264"
     d="m 788.96937,224.98155 v -50.10953 h -18.9189 -18.9189 v -19.43023 -19.43022 h 60.33596 60.33596 v 19.43022 19.43023 h -18.9189 -18.91891 v 50.10953 50.10952 h -22.49815 -22.49816 z"
     id="path1119" />
  <path
     style="fill:#bbbbbb;fill-opacity:1;stroke-width:1.02264"
     d="m 886.1205,205.55132 v -69.53975 h 22.49815 22.49815 v 24.54344 24.54344 h 19.43023 19.43022 v -24.54344 -24.54344 h 22.49816 22.49819 v 69.53975 69.53975 H 992.47541 969.97725 V 250.03631 224.98155 H 950.54703 931.1168 v 25.05476 25.05476 H 908.61865 886.1205 Z"
     id="path1121" />
  <path
     style="fill:#bbbbbb;fill-opacity:1;stroke-width:1.02264"
     d="m 1094.1998,277.1582 c -17.6291,-2.49035 -31.1993,-8.64624 -41.2125,-18.69538 -9.8208,-9.85604 -14.938,-18.61643 -18.7815,-32.15267 -3.2176,-11.33169 -3.1857,-31.10384 0.069,-42.69957 3.5858,-12.77607 8.6128,-21.39954 17.9775,-30.83907 6.6337,-6.68669 9.9143,-9.09891 16.9216,-12.44233 24.1543,-11.52495 58.727,-10.42812 80.6632,2.55907 9.3608,5.54201 19.7347,17.03727 24.6154,27.27631 5.7256,12.01142 7.5115,20.32273 7.4939,34.87544 -0.027,22.64981 -5.9098,37.92286 -20.0667,52.1014 -9.7869,9.80187 -18.6342,14.85292 -31.3255,17.88416 -9.8197,2.34536 -27.5043,3.38279 -36.3542,2.13264 z m 27.1287,-43.75513 c 9.638,-4.87168 14.317,-14.43101 14.317,-29.25044 0,-13.32224 -5.2764,-23.11811 -15.0199,-27.88515 -4.7229,-2.3107 -7.0813,-2.79487 -13.6141,-2.79487 -18.3259,0 -28.634,11.36415 -28.634,31.56739 0,17.08364 7.1828,27.63918 21.2039,31.16042 6.2407,1.56729 15.4577,0.3817 21.7471,-2.79735 z"
     id="path1123" />
  <path
     style="fill:#bbbbbb;fill-opacity:1;stroke-width:1.02264"
     d="m 1199.0494,205.55132 v -69.53975 l 19.1745,0.0272 19.1746,0.0272 4.1671,5.85299 c 2.2918,3.21915 10.3104,14.36651 17.8189,24.7719 7.5086,10.4054 15.9286,22.14023 18.7113,26.07741 2.7826,3.93718 5.3484,7.48078 5.7018,7.87467 0.3534,0.39389 0.4798,-13.98703 0.281,-31.95761 l -0.3615,-32.67377 h 22.604 22.604 v 69.53975 69.53975 h -18.7879 -18.7879 L 1267.63,242.36648 c -13.0456,-17.99852 -23.8083,-32.72459 -23.9171,-32.72459 -0.1088,0 -0.027,14.72607 0.182,32.72459 l 0.3798,32.72459 h -22.6127 -22.6126 z"
     id="path1125" />
  <path
     style="fill:#bbbbbb;fill-opacity:1;stroke-width:1.02264"
     d="m 1275.7476,451.25878 c -13.7213,-0.58127 -28.3878,-4.13411 -38.6244,-9.35641 l -4.3266,-2.20728 v -17.44938 c 0,-9.59715 0.3451,-17.29426 0.767,-17.10469 0.4218,0.18958 4.6786,2.26849 9.4594,4.61981 12.3446,6.07132 19.8234,7.84673 33.3793,7.92403 9.8229,0.056 11.6897,-0.20344 13.5501,-1.88316 1.1866,-1.07147 2.1575,-2.75627 2.1575,-3.74401 0,-2.99116 -5.799,-6.90669 -13.5918,-9.17727 -16.0187,-4.66733 -29.6726,-10.89731 -35.9363,-16.39684 -1.984,-1.74201 -5.1124,-6.22452 -6.9519,-9.96114 -3.0285,-6.15167 -3.3446,-7.66585 -3.3446,-16.01914 0,-8.01045 0.3731,-9.98503 2.8332,-14.99455 7.6484,-15.5744 25.0276,-23.16827 50.3442,-21.998 13.1814,0.60931 24.8384,3.10423 33.9112,7.2579 l 5.4606,2.49994 v 16.94491 16.94492 l -5.9162,-2.98651 c -10.7308,-5.41687 -20.077,-7.71186 -31.5533,-7.74802 -8.789,-0.0277 -10.6983,0.26423 -12.5273,1.91545 -5.3141,4.79733 -0.9767,8.48956 16.3733,13.9378 23.2139,7.28964 32.8157,13.35207 38.242,24.1455 2.7301,5.43042 3.0107,6.93905 3.016,16.21397 0.01,9.10758 -0.316,10.92703 -2.9367,16.63002 -7.2972,15.87967 -25.2068,23.2028 -53.7847,21.99215 z"
     id="path1127" />
  <path
     style="fill:#bbbbbb;fill-opacity:1;stroke-width:1.02264"
     d="m 1152.8449,449.19688 c 13.1156,-0.16196 34.2843,-0.16179 47.0416,3.9e-4 12.7572,0.16217 2.0263,0.29468 -23.8466,0.29447 -25.8729,-2.2e-4 -36.3106,-0.1329 -23.195,-0.29486 z"
     id="path1129" />
  <path
     style="fill:#bbbbbb;fill-opacity:1;stroke-width:1.02264"
     d="m 1020.0868,387.58184 v -61.3586 h 46.5303 46.5302 v 15.33965 15.33965 h -26.5887 -26.5887 v 7.66983 7.66982 h 23.5208 23.5208 v 14.82833 14.82833 h -23.5208 -23.5208 v 7.66983 7.66982 h 27.1 27.1001 v 15.85097 15.85098 h -47.0416 -47.0416 z"
     id="path1131" />
  <path
     style="fill:#bbbbbb;fill-opacity:1;stroke-width:1.02264"
     d="m 1130.5323,387.58184 v -61.3586 h 19.9415 19.9416 v 43.97367 43.97366 h 26.0774 26.0774 v 17.38494 17.38494 h -46.019 -46.0189 z"
     id="path1133" />
  <path
     style="fill:#bbbbbb;fill-opacity:1;stroke-width:1.02264"
     d="m 779.76558,387.58184 v -61.3586 h 34.09497 c 30.60627,0 34.9032,0.20671 41.99378,2.02018 21.4983,5.49833 31.58243,16.91797 33.02802,37.40214 1.00088,14.1827 -2.7947,25.01937 -11.67128,33.32237 -2.76263,2.58413 -6.01933,5.23165 -7.23711,5.88338 -2.14642,1.14873 -1.95466,1.53614 6.2695,12.66628 4.66599,6.31472 11.79213,15.96816 15.83585,21.45208 l 7.35222,9.97078 H 877.6241 855.81668 l -12.71512,-18.38137 -12.71513,-18.38138 -5.36888,-0.0262 -5.36887,-0.0262 v 18.40758 18.40758 h -19.94155 -19.94155 z m 62.96222,-6.61037 c 6.35724,-2.65623 8.50606,-12.92429 3.80898,-18.20104 -3.15386,-3.54308 -7.89771,-4.84524 -17.65147,-4.84524 h -9.23663 v 12.27172 12.27172 h 9.74795 c 6.2449,0 11.03564,-0.53803 13.33117,-1.49716 z"
     id="path1135" />
  <path
     style="fill:#bbbbbb;fill-opacity:1;stroke-width:1.02264"
     d="m 948.50174,451.25878 c -13.72131,-0.58127 -28.38782,-4.13411 -38.6244,-9.35641 l -4.32662,-2.20728 v -17.44938 c 0,-9.59715 0.34514,-17.29426 0.76698,-17.10469 0.42184,0.18958 4.6786,2.26849 9.45945,4.61981 12.34461,6.07132 19.82339,7.84673 33.37929,7.92403 9.82286,0.056 11.68972,-0.20344 13.55003,-1.88316 1.18666,-1.07147 2.15757,-2.75627 2.15757,-3.74401 0,-2.99116 -5.79902,-6.90669 -13.59182,-9.17727 -16.01867,-4.66733 -29.67265,-10.89731 -35.93627,-16.39684 -1.98404,-1.74201 -5.11242,-6.22452 -6.95195,-9.96114 -3.04429,-6.18382 -3.34092,-7.62219 -3.30355,-16.01914 0.0514,-11.55279 2.54257,-17.79532 9.81671,-24.59942 10.05991,-9.40987 23.66377,-13.30173 43.31969,-12.39313 13.18136,0.60931 24.83836,3.10423 33.91119,7.2579 l 5.46058,2.49994 v 16.88307 16.88307 l -8.4368,-4.00074 c -14.74405,-6.99163 -36.3496,-9.41484 -41.59761,-4.66546 -5.2701,4.76938 -0.90011,8.47283 16.41092,13.90777 23.52397,7.38555 32.8272,13.24798 38.09457,24.00526 5.3112,10.84696 4.5256,27.11748 -1.7926,37.12614 -8.05209,12.75539 -25.99465,18.9428 -51.76536,17.85108 z"
     id="path1137" />
  <path
     style="fill:#bbbbbb;fill-opacity:1;stroke-width:1.02264"
     d="m 690.28429,450.8825 c -33.25457,-2.49804 -55.55308,-25.48854 -57.40614,-59.18761 -1.77823,-32.33811 15.52644,-58.20136 44.11177,-65.92866 9.51598,-2.5724 26.94409,-3.14482 37.82629,-1.24239 18.84758,3.29494 34.46601,14.26804 42.70511,30.00348 6.09455,11.63964 7.37679,17.41972 7.33279,33.05452 -0.0343,12.17325 -0.36288,14.78254 -2.77918,22.06702 -9.77951,29.48251 -35.0449,43.99393 -71.79064,41.23364 z m 17.89626,-36.69661 c 9.08972,-2.5292 15.12704,-11.48098 16.05965,-23.81232 0.77113,-10.19604 -1.47321,-17.79797 -7.03634,-23.83327 -9.33297,-10.12507 -27.12124,-10.12507 -36.4542,0 -12.96985,14.07062 -7.74202,42.67747 8.70115,47.61303 4.01721,1.2058 14.44803,1.22393 18.72974,0.0326 z"
     id="path1139" />
  <path
     style="fill:#bbbbbb;fill-opacity:1;stroke-width:1.02264"
     d="m 477.06314,387.55825 v -61.3822 l 18.11932,0.27925 18.11931,0.27926 16.60804,26.07741 c 9.13442,14.34257 17.10298,26.07741 17.70792,26.07741 0.60494,0 8.59838,-11.73484 17.7632,-26.07741 l 16.66331,-26.07741 18.07185,-0.27926 18.07184,-0.27925 v 61.3822 61.3822 H 598.7577 579.32748 v -28.1227 c 0,-15.46748 -0.34514,-28.10148 -0.76698,-28.07556 -0.42184,0.0259 -5.13879,6.91845 -10.4821,15.31672 l -9.71511,15.26959 -10.73776,-0.0265 -10.73775,-0.0265 -9.71511,-15.28899 c -5.34332,-8.40895 -10.06026,-15.28953 -10.4821,-15.29019 -0.42184,-6.6e-4 -0.76698,12.65401 -0.76698,28.12149 v 28.1227 h -19.43023 -19.43022 z"
     id="path1141" />
</svg>
